<svg width="17" height="17" viewBox="0 0 17 17" fill="none" xmlns="http://www.w3.org/2000/svg">
<circle cx="8.5" cy="8.5" r="8.5" fill="#0071F5"/>
<path d="M8.29248 3.55598L3.70793 6.20866C3.64473 6.24524 3.59225 6.29786 3.55575 6.36122C3.51925 6.42457 3.50003 6.49645 3.5 6.56961V10.4296C3.49997 10.5029 3.51916 10.5749 3.55566 10.6384C3.59216 10.7019 3.64467 10.7546 3.70793 10.7913L8.29171 13.444C8.3549 13.4807 8.42662 13.5 8.49964 13.5C8.57265 13.5 8.64438 13.4807 8.70757 13.444L13.2921 10.7898C13.3553 10.7532 13.4078 10.7006 13.4443 10.6372C13.4808 10.5739 13.5 10.502 13.5001 10.4288V9.46578C13.5 9.3927 13.4809 9.32091 13.4445 9.25758C13.4082 9.19424 13.3559 9.14157 13.2929 9.10483L12.2494 8.49961L13.2913 7.89595C13.3546 7.85943 13.4071 7.80683 13.4436 7.74346C13.4801 7.68009 13.4993 7.60818 13.4993 7.535V6.57117C13.4993 6.49789 13.4801 6.42588 13.4436 6.36239C13.4071 6.2989 13.3546 6.24615 13.2913 6.20944L8.70834 3.55598C8.64515 3.51931 8.57343 3.5 8.50041 3.5C8.4274 3.5 8.35568 3.51931 8.29248 3.55598ZM12.2494 9.94653L8.50119 12.1177L4.74991 9.94653L8.49964 7.77849L9.33291 8.26079L10.582 7.53733L8.49964 6.32924L4.74991 8.49961V7.0527L8.49964 4.88232L12.2486 7.0527L8.49964 9.22385L7.66637 8.74076L6.41646 9.46344L8.49964 10.6708L10.9995 9.22385L12.2494 9.94653Z" fill="#F9F9F9"/>
</svg>
