<svg width="180" height="183" viewBox="0 0 180 183" fill="none" xmlns="http://www.w3.org/2000/svg">
<path opacity="0.15" d="M89.9104 182.571C40.2498 182.46 -0.109548 141.461 0.000223392 91.2171C0.109995 40.8247 40.5242 -0.111113 90.0457 0.000226584C139.717 0.111566 180.058 41.1142 179.956 91.3544C179.846 141.747 139.436 182.686 89.9104 182.571ZM90.1226 124.407C96.5881 124.407 103.05 124.378 109.516 124.437C110.69 124.437 111.206 124.066 111.568 122.953C115.542 110.371 119.552 97.8022 123.599 85.2455C123.936 84.2027 123.779 83.6237 122.867 82.9594C112.3 75.2077 101.76 67.4139 91.2459 59.578C90.3275 58.8952 89.753 58.9471 88.8748 59.6003C78.4051 67.3867 67.9158 75.1421 57.407 82.8666C56.4776 83.5495 56.2215 84.1099 56.602 85.2864C60.6489 97.7836 64.6446 110.293 68.5891 122.815C68.955 124.029 69.4636 124.452 70.7369 124.437C77.2061 124.37 83.6607 124.407 90.1226 124.407ZM93.8255 39.6408C93.8255 43.2297 93.8585 46.8185 93.8036 50.4037C93.7557 50.9178 93.8473 51.4354 94.0685 51.9005C94.2897 52.3656 94.6321 52.7605 95.0586 53.0424C106.172 61.2073 117.259 69.4007 128.319 77.6225C129.216 78.2905 129.911 78.4316 130.932 77.8637C136.377 74.8279 141.876 71.8959 147.317 68.8489C147.63 68.6603 147.901 68.4079 148.114 68.1077C148.326 67.8075 148.475 67.4659 148.55 67.1046C149.526 56.8861 150.43 46.6614 151.262 36.4305C151.244 35.7172 150.968 35.0354 150.486 34.5155C143.173 26.4214 134.329 19.9024 124.481 15.3465C123.623 14.967 122.656 14.9259 121.77 15.2315C112.889 18.9873 104.064 22.862 95.194 26.6475C94.0963 27.1114 93.7816 27.7386 93.8036 28.8743C93.8621 32.4631 93.8255 36.052 93.8255 39.6408ZM86.3245 39.7522C86.3245 36.1002 86.2733 32.4483 86.3538 28.8001C86.3794 27.6124 85.9696 27.0854 84.9158 26.6364C76.1084 22.8694 67.3267 19.0059 58.5121 15.2797C57.5193 14.9251 56.4324 14.9555 55.4604 15.3651C46.0134 19.7624 37.4718 25.9327 30.2862 33.5506C29.7478 34.0711 29.3413 34.7157 29.1012 35.4297C28.861 36.1437 28.7943 36.9059 28.9067 37.6516C29.802 47.2565 30.6423 56.8675 31.4278 66.4848C31.5266 67.6761 31.9254 68.3405 33.0085 68.8823C38.7264 71.6485 44.4186 74.4666 50.0853 77.3367C51.033 77.8192 51.6733 77.7635 52.5185 77.1326C63.3859 69.0493 74.274 60.997 85.1829 52.9756C86.094 52.3076 86.3684 51.6061 86.3501 50.5187C86.2842 46.9299 86.3245 43.341 86.3245 39.7522ZM29.1336 75.4068C29.0023 75.4777 28.8795 75.5636 28.7677 75.6629C22.0423 83.4938 15.3341 91.3358 8.64289 99.189C8.24919 99.7098 8.0613 100.361 8.11599 101.015C9.33368 111.841 12.6661 122.313 17.9186 131.819C18.3568 132.588 19.0609 133.165 19.8945 133.437C29.6019 135.779 39.3387 138.006 49.0571 140.31C50.0706 140.552 50.7146 140.392 51.4172 139.568C54.7103 135.753 58.0913 132.019 61.3734 128.197C61.5765 127.93 61.7205 127.621 61.7956 127.293C61.8708 126.964 61.8753 126.623 61.8089 126.293C57.5863 112.887 53.3174 99.4982 49.0022 86.1251C48.8294 85.5499 48.4596 85.0562 47.9594 84.7334C41.6768 81.5936 35.3796 78.4984 29.1336 75.4068ZM151.21 75.4068C144.577 79.0291 138.137 82.5214 131.733 86.0843C131.232 86.3626 130.859 87.0901 130.668 87.6876C126.581 100.429 122.549 113.184 118.44 125.914C118.074 127.046 118.308 127.725 119.04 128.538C122.245 132.101 125.451 135.668 128.554 139.327C129.457 140.396 130.295 140.537 131.543 140.236C140.786 138.009 150.032 135.827 159.297 133.715C160.72 133.393 161.65 132.814 162.352 131.489C167.417 122.014 170.646 111.643 171.866 100.937C171.9 100.168 171.661 99.4121 171.192 98.8067C169.389 96.5502 167.471 94.3865 165.594 92.1894L151.21 75.4068ZM90.1043 132.082C83.2765 132.082 76.4451 132.045 69.6136 132.131C68.6875 132.174 67.8091 132.559 67.1438 133.214C63.8104 136.825 60.6306 140.585 57.3156 144.215C56.5179 145.087 56.5837 145.699 57.1436 146.605C62.1418 155.022 67.0779 163.48 72.1054 171.879C72.595 172.613 73.3377 173.135 74.1874 173.341C84.678 175.473 95.4818 175.466 105.97 173.323C106.823 173.127 107.574 172.615 108.074 171.886C113.131 163.432 118.089 154.914 123.124 146.449C123.676 145.521 123.577 144.983 122.889 144.222C119.633 140.61 116.418 136.965 113.244 133.289C112.904 132.866 112.469 132.534 111.975 132.319C111.482 132.103 110.944 132.012 110.408 132.053C103.639 132.097 96.8699 132.075 90.097 132.075L90.1043 132.082ZM7.98061 88.2591C8.54044 87.6208 9.10393 86.9899 9.65645 86.3478C14.1278 81.1148 18.6321 75.9153 23.0303 70.6192C23.6869 69.7919 24.0354 68.7566 24.0146 67.6947C23.5974 61.6527 23.0193 55.6255 22.4851 49.5946C22.3387 47.9282 22.1484 46.2544 21.9801 44.6029C12.8984 57.7521 8.25869 72.2485 7.98061 88.2591ZM25.0098 142.482C31.1241 152.602 52.6686 168.405 62.0357 169.704C57.9047 162.697 53.8212 155.749 49.6938 148.832C49.3727 148.404 48.91 148.109 48.3911 148C40.6998 146.159 33.0012 144.371 25.0098 142.482ZM118.206 169.608C128.107 167.834 149.981 151.656 154.84 142.515C147.035 144.345 139.34 146.13 131.667 147.997C131.075 148.141 130.475 148.787 130.131 149.359C127.496 153.731 124.92 158.14 122.333 162.541C120.972 164.879 119.625 167.195 118.206 169.608ZM171.975 88.0253C171.661 72.178 167.087 57.7706 158.166 44.2317C157.434 52.675 156.703 60.5615 156.059 68.437C156.054 69.0343 156.26 69.6135 156.64 70.07C161.719 76.0773 166.831 82.0625 171.975 88.0253ZM112.699 10.8299C97.4077 6.65091 82.6471 6.6138 67.7402 10.7222C67.978 10.9375 68.0512 11.0488 68.1573 11.0934C75.1863 14.1589 82.2263 17.2356 89.281 20.264C89.7813 20.4532 90.3321 20.4532 90.8324 20.264C97.9529 17.2356 105.048 14.1441 112.699 10.8299Z" fill="#E15252"/>
</svg>
