<svg width="129" height="24" viewBox="0 0 129 24" fill="none" xmlns="http://www.w3.org/2000/svg">
<path d="M11.5637 0.134358L0.501713 6.50075C0.349225 6.58855 0.222588 6.71482 0.134522 6.86688C0.0464565 7.01894 6.23909e-05 7.19143 9.49519e-08 7.36703V16.631C-7.65441e-05 16.8069 0.0462417 16.9797 0.134305 17.132C0.222368 17.2844 0.349078 17.411 0.501713 17.4991L11.5619 23.8655C11.7143 23.9535 11.8874 23.9999 12.0636 23.9999C12.2397 23.9999 12.4128 23.9535 12.5653 23.8655L23.6273 17.4954C23.7798 17.4076 23.9064 17.2813 23.9945 17.1293C24.0825 16.9772 24.1289 16.8047 24.129 16.6291V14.3178C24.1289 14.1424 24.0828 13.9701 23.995 13.8181C23.9073 13.6661 23.7812 13.5397 23.6292 13.4515L21.1112 11.999L23.6254 10.5502C23.778 10.4626 23.9048 10.3363 23.9929 10.1842C24.0809 10.0322 24.1273 9.85959 24.1271 9.68395V7.37076C24.1272 7.19489 24.0809 7.02208 23.9928 6.8697C23.9048 6.71732 23.7781 6.59072 23.6254 6.50262L12.5672 0.134358C12.4147 0.0463449 12.2416 0 12.0654 0C11.8893 0 11.7162 0.0463449 11.5637 0.134358ZM21.1112 15.4716L12.0673 20.6823L3.01589 15.4716L12.0636 10.2683L14.0742 11.4258L17.0882 9.68955L12.0636 6.79013L3.01589 11.999V8.52642L12.0636 3.31756L21.1094 8.52642L12.0636 13.7372L10.053 12.5778L7.03708 14.3122L12.0636 17.2097L18.0954 13.7372L21.1112 15.4716Z" fill="url(#paint0_linear_7787_1355)"/>
<path d="M44.9453 14.9323C44.9453 17.2679 44.2751 18.7391 41.4839 18.7391H34.0855C32.8069 18.7391 32 18.1118 32 16.6406V7.11902C32 5.64597 32.8069 5 34.0855 5H41.2873C43.6667 5 44.6888 6.19673 44.6888 8.8049C44.6888 10.2387 44.1984 11.4355 42.682 11.6894V11.7678C44.4548 12.0292 44.9453 13.168 44.9453 14.9323ZM35.5419 10.5375H39.7915C40.7556 10.5375 41.1488 10.1641 41.1488 9.08681C41.1488 8.10478 40.7556 7.67351 39.7709 7.67351H36.4274C35.7385 7.67351 35.5419 7.86021 35.5419 8.55659V10.5375ZM35.5419 15.0891C35.5419 15.8751 35.7291 16.0712 36.5248 16.0712H39.8102C40.8736 16.0712 41.3247 15.6586 41.3247 14.5776C41.3247 13.4966 40.8736 13.084 39.8889 13.084H35.5419V15.0891Z" fill="#F9F9F9"/>
<path d="M57.5637 7.67351H50.4705C49.7816 7.67351 49.5476 7.90875 49.5476 8.5958V10.4983H57.3765V13.0504H49.5476V15.1489C49.5476 15.8359 49.7816 16.0712 50.4705 16.0712H57.633V18.7391H48.0855C46.805 18.7391 46 18.1118 46 16.6406V7.11902C46 5.64597 46.805 5 48.0855 5H57.5637V7.67351Z" fill="#F9F9F9"/>
<path d="M64.1145 18.7335V7.74632H59V5H72.7709V7.74632H67.6564V18.7335H64.1145Z" fill="#F9F9F9"/>
<path d="M73 7.11902C73 5.64597 73.8069 5 75.0855 5H82.4427C85.2957 5 86.1232 6.66721 86.1232 9.51249C86.1232 11.906 85.5316 14.2415 82.9931 14.2415H82.0102V14.3386L86.3965 18.7335H82.0496L78.9419 15.1638C78.429 14.5944 77.7007 13.9858 77.7007 13.2203V12.9067C77.7007 11.906 78.4496 11.6707 79.7282 11.6707H80.8889C82.1993 11.6707 82.5026 11.0042 82.5026 9.63011C82.5026 8.2168 82.0889 7.74632 80.7503 7.74632H77.4649C76.776 7.74632 76.5401 7.98156 76.5401 8.66861V18.7335H73V7.11902Z" fill="#F9F9F9"/>
<path d="M97.2873 13.3193V5H100.827V13.4948C100.827 17.6152 98.448 18.8903 94.4137 18.8903C90.3794 18.8903 88 17.6152 88 13.4948V5H91.5419V13.3193C91.5419 15.2796 92.4461 16.144 94.4137 16.144C96.3812 16.144 97.2873 15.2796 97.2873 13.3193Z" fill="#F9F9F9"/>
<path d="M102.157 15.9797H109.79C110.726 15.9797 110.774 15.3711 110.774 15.0462C110.774 14.5739 110.538 14.1818 109.713 13.926L104.321 12.3186C102.53 11.7883 102 10.3956 102 8.47258C102 6.4189 102.904 5 105.183 5H113.682V7.73886H106.568C106.055 7.73886 105.604 7.92555 105.604 8.64061C105.604 9.17083 105.879 9.54422 106.704 9.79813L111.544 11.2114C113.592 11.7995 114.397 12.8208 114.397 15.0761C114.397 17.2548 113.592 18.726 111.25 18.726H102.157V15.9797Z" fill="#F9F9F9"/>
<path d="M120.114 18.7335V7.74632H115V5H128.771V7.74632H123.656V18.7335H120.114Z" fill="#F9F9F9"/>
<defs>
<linearGradient id="paint0_linear_7787_1355" x1="2.21652" y1="17.669" x2="21.5772" y2="6.46076" gradientUnits="userSpaceOnUse">
<stop stop-color="#004FF5"/>
<stop offset="1" stop-color="#1BDEEA"/>
</linearGradient>
</defs>
</svg>
