<svg width="14" height="17" viewBox="0 0 14 17" fill="none" xmlns="http://www.w3.org/2000/svg">
<path d="M1.30859 0.785156C4.1856 2.48259 8.10878 3.79293 13.0781 4.71619C7.99893 7.8155 4.07575 9.12585 1.30859 8.64853V0.785156Z" fill="#E83838"/>
<mask id="mask0_7954_1671" style="mask-type:alpha" maskUnits="userSpaceOnUse" x="1" y="0" width="13" height="9">
<path d="M1.30859 0.785156C4.1856 2.48259 8.10878 3.79293 13.0781 4.71619C7.99893 7.8155 4.07575 9.12585 1.30859 8.64853V0.785156Z" fill="white"/>
</mask>
<g mask="url(#mask0_7954_1671)">
<path opacity="0.2" d="M1.30859 0.782974C1.91538 0.678356 4.19867 0.77382 4.80154 0.782974C7.18814 3.5449 1.52698 2.81257 2.97072 8.63719C2.53001 9.87953 1.90753 9.11059 1.30859 8.64634V0.782974Z" fill="#131313"/>
</g>
<path d="M0 0.185304C0.196579 0.0641536 0.422951 0 0.653864 0C0.884777 0 1.11115 0.0641536 1.30773 0.185304V16.8379C0.958565 17.0367 0.330855 17.0707 0 16.8379V0.185304Z" fill="#A7A7A7"/>
</svg>
