<svg width="20" height="27" viewBox="0 0 20 27" fill="none" xmlns="http://www.w3.org/2000/svg">
<path d="M13.0662 17.9999L7.85558 17.9798C7.62744 17.979 7.3997 17.964 7.17434 17.9351C6.37985 17.8391 5.62886 17.5787 4.9931 17.1789C4.83512 17.0617 4.73885 16.8993 4.72442 16.7256C4.71568 16.4874 4.82458 16.2465 4.86512 16.005C4.98277 15.3096 5.11154 14.6149 5.19898 13.9162C5.29835 13.1438 5.39215 12.3668 5.42553 11.5898C5.4772 10.2949 5.18706 9.01935 4.94859 7.74383C4.89215 7.44404 4.7896 7.15074 4.71011 6.85484C4.63539 7.12678 4.64731 7.38577 4.63062 7.64347C4.61631 7.88757 4.49231 8.04102 4.13936 8.03195C3.57021 8.01641 2.99469 8.07015 2.43348 8.01577C2.02967 7.97692 1.63857 7.87591 1.24111 7.78203C1.1421 7.75912 1.05485 7.71073 0.992381 7.64409C0.929915 7.57746 0.89559 7.49615 0.894533 7.41232V4.70781C0.894069 4.29452 0.974572 3.88382 1.13301 3.4912C1.39215 2.85537 1.76099 2.27847 2.56385 1.99423C3.92315 1.51186 5.29755 1.05798 6.65367 0.56978C7.08292 0.41568 7.478 0.194243 7.88976 0H13.0567C13.1839 0.085467 13.2952 0.200718 13.4406 0.252516C15.0249 0.812584 16.6147 1.361 18.2006 1.91653C18.7983 2.12567 19.2761 2.44034 19.5416 2.94278L19.5766 3.00753C19.786 3.40117 19.8942 3.82557 19.8945 4.25457V7.58908C19.8951 7.66006 19.8663 7.72913 19.8128 7.78516C19.7593 7.84119 19.6842 7.88091 19.5996 7.89793C18.6942 8.07145 17.7713 8.01447 16.8452 8.03195C16.4541 8.03907 16.3262 7.88239 16.319 7.60656C16.3126 7.3793 16.319 7.15333 16.319 6.92477L16.2204 6.91829C16.1409 7.29059 16.0408 7.66095 15.982 8.03584C15.823 9.11194 15.5956 10.1868 15.5464 11.2674C15.5058 12.157 15.6481 13.057 15.7681 13.9473C15.8866 14.822 16.0543 15.6955 16.2538 16.5592C16.3158 16.8266 16.2538 17.0125 16.0154 17.142C15.599 17.3635 15.1645 17.5614 14.7149 17.7344C14.618 17.7703 14.5187 17.8019 14.4176 17.8289C13.9816 17.9455 13.5251 18.0032 13.0662 17.9999Z" fill="#FFF"/>
<path d="M2.54688 26.6733C2.54688 25.196 3.31254 20.1254 4.46103 18.0548C5.22669 17.76 5.22669 18.7505 10.2031 18.7505C15.1803 18.9418 14.7975 18.0567 15.9459 18.057C17.0944 18.7505 18.2425 25.8416 18.2425 26.6733C18.2425 27.2642 10.9688 26.6733 10.9688 26.6733L10.2031 22.0006C10.2031 22.0006 9.82065 26.0346 9.43743 26.6733C9.28881 26.921 2.92971 27.2642 2.54688 26.6733Z" fill="#FFF"/>
</svg>
