<svg width="11" height="16" viewBox="0 0 11 16" fill="none" xmlns="http://www.w3.org/2000/svg">
<path d="M3.95769e-06 1.1775C3.95769e-06 0.5265 0.535504 0 1.164 0H9.336C9.9795 0 10.5 0.534 10.5 1.1775V13.8225C10.5 14.4675 9.981 14.9925 9.336 15H1.164C0.85381 14.9972 0.557309 14.8719 0.339229 14.6512C0.121148 14.4306 -0.000800783 14.1327 3.95769e-06 13.8225V1.1775Z" fill="#E83838"/>
<path d="M9.336 0C9.9795 0 10.5 0.534 10.5 1.1775V13.8225C10.5 14.4675 9.981 14.9925 9.336 15H1.164C0.85381 14.9972 0.557309 14.8719 0.339229 14.6512C0.121148 14.4306 -0.000800783 14.1327 3.95769e-06 13.8225V1.1775C3.95769e-06 0.5265 0.535504 0 1.164 0H9.336ZM9.336 0.3H1.164C0.958453 0.303542 0.760647 0.37902 0.604984 0.513306C0.449322 0.647592 0.345652 0.832191 0.312004 1.035L0.300004 1.1775V13.8225C0.300004 14.256 0.615004 14.6205 1.0245 14.688L1.164 14.7H9.336C9.756 14.7 10.1205 14.3775 10.188 13.965L10.2 13.8225V1.1775C10.2 0.971138 10.1275 0.77134 9.99502 0.613101C9.86256 0.454862 9.67865 0.348272 9.4755 0.312L9.336 0.3Z" fill="black" fill-opacity="0.25"/>
<path d="M7.88181 11.3497C10.2368 7.98519 10.4768 3.15969 10.4918 1.64619L10.4993 1.17969V13.8247C10.4993 14.4697 9.98031 14.9947 9.33531 15.0022L0.695312 15.0007L1.17381 14.9752C1.17381 14.9752 5.05581 15.3847 7.88181 11.3497Z" fill="black" fill-opacity="0.2"/>
</svg>
