<svg width="19" height="18" viewBox="0 0 19 18" fill="none" xmlns="http://www.w3.org/2000/svg">
<path d="M10.3889 0H8.61111V8.88889H10.3889V0ZM14.6822 1.92889L13.42 3.19111C14.8244 4.32 15.7222 6.05333 15.7222 8C15.7222 11.44 12.94 14.2222 9.5 14.2222C6.06 14.2222 3.27778 11.44 3.27778 8C3.27778 6.05333 4.17556 4.32 5.57111 3.18222L4.31778 1.92889C2.59333 3.39556 1.5 5.56444 1.5 8C1.5 12.4178 5.08222 16 9.5 16C13.9178 16 17.5 12.4178 17.5 8C17.5 5.56444 16.4067 3.39556 14.6822 1.92889Z" fill="#F9F9F9"/>
</svg>
